<svg version="1.1" viewBox="0.0 0.0 755.9055118110236 755.9055118110236" fill="none" stroke="none" stroke-linecap="square" stroke-miterlimit="10" xmlns:xlink="http://www.w3.org/1999/xlink" xmlns="http://www.w3.org/2000/svg"><clipPath id="g6cd6004f4a_0_5.0"><path d="m0 0l755.9055 0l0 755.9055l-755.9055 0l0 -755.9055z" clip-rule="nonzero"/></clipPath><g clip-path="url(#g6cd6004f4a_0_5.0)"><path fill="#000000" fill-opacity="0.0" d="m0 0l755.9055 0l0 755.9055l-755.9055 0z" fill-rule="evenodd"/><path fill="#000000" fill-opacity="0.0" d="m57.350964 252.68755l0 0c0 -103.804474 84.15015 -187.95462 187.95462 -187.95462l0 0c49.84868 0 97.655655 19.802307 132.90398 55.050636c35.248352 35.248337 55.05066 83.05533 55.05066 132.90399l0 0c0 103.80446 -84.15018 187.95464 -187.95464 187.95464l0 0c-103.804474 0 -187.95462 -84.15018 -187.95462 -187.95464z" fill-rule="evenodd"/><path stroke="#073763" stroke-width="16.0" stroke-linejoin="round" stroke-linecap="butt" d="m57.350964 252.68755l0 0c0 -103.804474 84.15015 -187.95462 187.95462 -187.95462l0 0c49.84868 0 97.655655 19.802307 132.90398 55.050636c35.248352 35.248337 55.05066 83.05533 55.05066 132.90399l0 0c0 103.80446 -84.15018 187.95464 -187.95464 187.95464l0 0c-103.804474 0 -187.95462 -84.15018 -187.95462 -187.95464z" fill-rule="evenodd"/><path fill="#000000" fill-opacity="0.0" d="m322.5524 252.68755l0 0c0 -103.804474 84.15015 -187.95462 187.95462 -187.95462l0 0c49.848633 0 97.65564 19.802307 132.90399 55.050636c35.24829 35.248337 55.0506 83.05533 55.0506 132.90399l0 0c0 103.80446 -84.15015 187.95464 -187.95459 187.95464l0 0c-103.804474 0 -187.95462 -84.15018 -187.95462 -187.95464z" fill-rule="evenodd"/><path stroke="#073763" stroke-width="16.0" stroke-linejoin="round" stroke-linecap="butt" d="m322.5524 252.68755l0 0c0 -103.804474 84.15015 -187.95462 187.95462 -187.95462l0 0c49.848633 0 97.65564 19.802307 132.90399 55.050636c35.24829 35.248337 55.0506 83.05533 55.0506 132.90399l0 0c0 103.80446 -84.15015 187.95464 -187.95459 187.95464l0 0c-103.804474 0 -187.95462 -84.15018 -187.95462 -187.95464z" fill-rule="evenodd"/><path fill="#000000" fill-opacity="0.0" d="m377.76395 315.17044l0 0c103.804474 0 187.95462 84.15015 187.95462 187.95462l0 0c0 49.848633 -19.802307 97.65564 -55.05066 132.90399c-35.24832 35.248352 -83.0553 55.0506 -132.90396 55.0506l0 0c-103.804474 0 -187.95464 -84.15015 -187.95464 -187.95459l0 0c0 -103.804474 84.15016 -187.95462 187.95464 -187.95462z" fill-rule="evenodd"/><path stroke="#073763" stroke-width="16.0" stroke-linejoin="round" stroke-linecap="butt" d="m377.76395 315.17044l0 0c103.804474 0 187.95462 84.15015 187.95462 187.95462l0 0c0 49.848633 -19.802307 97.65564 -55.05066 132.90399c-35.24832 35.248352 -83.0553 55.0506 -132.90396 55.0506l0 0c-103.804474 0 -187.95464 -84.15015 -187.95464 -187.95459l0 0c0 -103.804474 84.15016 -187.95462 187.95464 -187.95462z" fill-rule="evenodd"/></g></svg>